<?xml version="1.0" encoding="utf-8"?>
<!-- Generator: Adobe Illustrator 25.0.0, SVG Export Plug-In . SVG Version: 6.00 Build 0)  -->
<svg version="1.1" id="Layer_1" xmlns="http://www.w3.org/2000/svg" xmlns:xlink="http://www.w3.org/1999/xlink" x="0px"
	y="0px" viewBox="0 0 1296 1728" style="enable-background:new 0 0 1296 1728;" xml:space="preserve">
	<style type="text/css">
		.st0 {
			clip-path: url(#SVGID_2_);
			fill: #E2988F;
		}

		.st1 {
			clip-path: url(#SVGID_2_);
		}

		.st2 {
			fill: #512F2F;
		}

		.st3 {
			fill: #ED8585;
		}

		.st4 {
			fill: #9E2A2A;
		}

		.st5 {
			fill: #BC736D;
		}

		.st6 {
			fill: #7A4B48;
		}

		.st7 {
			fill: #7A3636;
		}

		.st8 {
			fill: #E2988F;
		}

		.st9 {
			fill: #D6918E;
		}
	</style>
	<g>
		<defs>
			<rect id="SVGID_1_" width="1296" height="1388.98" />
		</defs>
		<clipPath id="SVGID_2_">
			<use xlink:href="#SVGID_1_" style="overflow:visible;" />
		</clipPath>
		<rect x="0" class="st0" width="1296" height="1388.98" />
		<g class="st1">
			<path class="st2" d="M1700.14,556.33v832.65h-587.75V556.33c0-136.38,131.57-246.94,293.87-246.94
			C1568.57,309.39,1700.14,419.95,1700.14,556.33z" />
			<path class="st3" d="M1155.5,631.25c-14.88,0-29.32,1.82-43.12,5.23v752.5h219.36V804.57
			C1331.75,708.85,1252.84,631.25,1155.5,631.25z" />
			<path class="st4" d="M1406.26,309.39c-35.51,0-69.55,5.29-101.06,14.99c10.36-0.92,20.87-1.4,31.52-1.4
			c162.31,0,293.88,109.17,293.88,243.83v822.17h69.54V556.33C1700.14,419.95,1568.57,309.39,1406.26,309.39z" />
			<rect x="1112.39" y="1312.06" class="st5" width="518.21" height="76.92" />
			<polygon class="st6" points="1331.75,1312.06 1630.59,1312.06 1630.59,1388.98 		" />
		</g>
		<g class="st1">
			<path class="st2" d="M181.48,556.33v832.65h-587.75V556.33c0-136.38,131.57-246.94,293.87-246.94
			C49.91,309.39,181.48,419.95,181.48,556.33z" />
			<path class="st3" d="M-363.15,631.25c-14.88,0-29.32,1.82-43.12,5.23v752.5h219.36V804.57
			C-186.91,708.85-265.81,631.25-363.15,631.25z" />
			<path class="st7" d="M-112.4,309.39c-35.51,0-69.55,5.29-101.06,14.99c10.36-0.92,20.87-1.4,31.52-1.4
			c162.31,0,293.88,109.17,293.88,243.83v822.17h69.54V556.33C181.48,419.95,49.91,309.39-112.4,309.39z" />
			<rect x="-406.27" y="1312.06" class="st5" width="518.21" height="76.92" />
			<polygon class="st6" points="-186.91,1312.06 111.94,1312.06 111.94,1388.98 		" />
		</g>
		<g class="st1">
			<path class="st2" d="M941.88,556.33v832.65H354.12V556.33c0-136.38,131.57-246.94,293.87-246.94
			C810.3,309.39,941.88,419.95,941.88,556.33z" />
			<path class="st3" d="M397.24,631.25c-14.88,0-29.32,1.82-43.12,5.23v752.5h219.36V804.57
			C573.49,708.85,494.58,631.25,397.24,631.25z" />
			<path class="st7" d="M648,309.39c-35.51,0-69.55,5.29-101.06,14.99c10.36-0.92,20.87-1.4,31.52-1.4
			c162.31,0,293.88,109.17,293.88,243.83v822.17h69.54V556.33C941.88,419.95,810.31,309.39,648,309.39z" />
			<rect x="354.12" y="1312.06" class="st5" width="518.21" height="76.92" />
			<polygon class="st6" points="573.49,1312.06 872.33,1312.06 872.33,1388.98 		" />
		</g>
		<path class="st0" d="M0,1388.98" />
	</g>
	<rect y="1388.98" class="st8" width="1296" height="69.14" />
	<rect y="1458.12" class="st5" width="1296" height="69.74" />
	<rect y="1607.37" class="st5" width="1296" height="45.37" />
	<rect y="1527.98" class="st9" width="1296" height="81.19" />
	<rect y="1650.94" class="st9" width="1296" height="77.06" />
</svg>