<?xml version="1.0" encoding="utf-8"?>
<!-- Generator: Adobe Illustrator 25.0.0, SVG Export Plug-In . SVG Version: 6.00 Build 0)  -->
<svg version="1.1" id="Layer_1" xmlns="http://www.w3.org/2000/svg" xmlns:xlink="http://www.w3.org/1999/xlink" x="0px" y="0px"
	 viewBox="0 0 2409.45 1296" style="enable-background:new 0 0 2409.45 1296;" xml:space="preserve">
<style type="text/css">
	.st0{fill:#C6C5BA;stroke:#5F7884;stroke-miterlimit:10;}
	.st1{opacity:0.1;}
	.st2{fill:#999999;}
	.st3{fill:#ECECEC;}
	.st4{fill:none;stroke:#000000;stroke-width:9;stroke-miterlimit:10;}
	.st5{opacity:0.17;fill:#020202;}
	.st6{fill:#96B288;}
	.st7{opacity:0.3;}
	.st8{fill:#E5947F;}
	.st9{opacity:0.2;}
	.st10{fill:#F9E0D7;}
	.st11{fill:#A67C52;}
	.st12{opacity:0.36;}
	.st13{fill:none;stroke:#603813;stroke-miterlimit:10;}
	.st14{fill:#8C6239;}
	.st15{fill:#4B9245;}
	.st16{opacity:0.13;}
	.st17{fill:#FFF9D4;}
	.st18{fill:#6E926B;}
	.st19{fill:#FBB03B;}
	.st20{fill:#333333;}
	.st21{fill:#5B3A1E;}
	.st22{fill:#44B299;}
</style>
<g>
	<path class="st0" d="M0,0v1296h1855.35v-294.92V1296h73.84h480.26V0H0z M1401.25,1138.2c0,0,11.92-48.37-16.91-64.11
		C1413.18,1089.83,1401.25,1138.2,1401.25,1138.2z"/>
	<g>
		<path class="st1" d="M1589.24,381.75c0,121.78-98.73,220.5-220.51,220.5c-39.2,0-76-10.23-107.9-28.16
			c-65.27-36.69-109.96-105.64-112.48-185.23c9.78,103.13,96.63,183.8,202.32,183.8c112.25,0,203.25-90.99,203.25-203.25
			c0-112.25-91-203.25-203.25-203.25c-19.28,0-37.93,2.68-55.59,7.7c23.03-8.17,47.82-12.61,73.65-12.61
			c52.99,0,101.62,18.69,139.64,49.85C1557.74,251.53,1589.24,312.96,1589.24,381.75z"/>
		<path class="st2" d="M1508.37,211.1c-40.41-40.27-96.15-65.15-157.7-65.15c-123.42,0-223.47,100.05-223.47,223.46
			c0,91.46,54.94,170.09,133.63,204.68c27.49,12.08,57.88,18.79,89.84,18.79c123.41,0,223.46-100.05,223.46-223.47
			C1574.13,307.55,1548.99,251.56,1508.37,211.1z M1350.67,572.66c-105.69,0-192.54-80.67-202.32-183.8
			c-0.62-6.4-0.93-12.89-0.93-19.45c0-92.96,62.41-171.34,147.61-195.54c0.02-0.01,0.03-0.01,0.05-0.01
			c17.66-5.02,36.31-7.7,55.59-7.7c112.25,0,203.25,91,203.25,203.25C1553.92,481.67,1462.92,572.66,1350.67,572.66z"/>
		<path class="st3" d="M1454.05,194.38c59.78,35.39,99.87,100.53,99.87,175.03c0,112.25-91,203.25-203.25,203.25
			c-40.5,0-78.24-11.85-109.93-32.27L1454.05,194.38z"/>
		<g>
			<path class="st3" d="M1240.73,540.4c-56.14-36.17-93.32-99.24-93.32-170.98c0-112.25,91-203.25,203.25-203.25
				c37.75,0,73.09,10.29,103.38,28.22L1240.73,540.4z"/>
			<path class="st1" d="M1240.73,540.4c-56.14-36.17-93.32-99.24-93.32-170.98c0-112.25,91-203.25,203.25-203.25
				c37.75,0,73.09,10.29,103.38,28.22L1240.73,540.4z"/>
		</g>
		<g>
			<line class="st4" x1="1354.39" y1="396.1" x2="1425.1" y2="325.39"/>
			<line class="st4" x1="1215.21" y1="289.42" x2="1360.06" y2="396.1"/>
		</g>
		<path class="st5" d="M1454.05,194.38c59.78,35.39,99.87,100.53,99.87,175.03c0,112.25-91,203.25-203.25,203.25
			c-40.5,0-78.24-11.85-109.93-32.27L1454.05,194.38z"/>
	</g>
	<g>
		<path class="st1" d="M1302.9,839.17h-63.31c14.57-11.71,26.93-26.56,35.9-44.23c13.88-27.31,17.62-57.17,12.61-85.41
			c-14.71,7.2-28.15,17.02-39.57,29.2c-4.19-22.76-13.51-43.72-26.71-61.64c-14.94,20.29-24.9,44.47-28.09,70.74
			c-10.15-11.68-21.96-21.54-34.89-29.34c-6.68,29.14-4.53,60.72,8.11,90.52c4.64,10.94,10.45,21.02,17.19,30.17h-47.35
			c-3.36,0-6.09,2.73-6.09,6.09v19.91c0,3.36,2.72,6.09,6.09,6.09h7.59l0.79,7.8l12.21,120.17c0.37,3.62,3.42,6.38,7.06,6.38h55.04
			h55.03c3.64,0,6.69-2.75,7.06-6.38l12.21-120.17l0.79-7.8h8.31c3.36,0,6.08-2.73,6.08-6.09v-19.91
			C1308.98,841.9,1306.26,839.17,1302.9,839.17z"/>
		<g>
			<g>
				<g>
					<ellipse class="st6" cx="1167.62" cy="726.27" rx="29.2" ry="89.06"/>
					<path class="st7" d="M1196.82,726.27c0,33.33-10.84,64.13-29.2,89.06V637.21C1185.98,662.14,1196.82,692.94,1196.82,726.27z"/>
				</g>
				<g>
					
						<ellipse transform="matrix(0.453 -0.8915 0.8915 0.453 -7.408 1473.1891)" class="st6" cx="1196.82" cy="742.63" rx="81.86" ry="27.44"/>
					<path class="st7" d="M1221.29,755.06c-13.88,27.31-35.79,47.93-61.55,60.54l74.16-145.95
						C1238.9,697.9,1235.16,727.75,1221.29,755.06z"/>
				</g>
				<g>
					
						<ellipse transform="matrix(0.9206 -0.3906 0.3906 0.9206 -205.7286 504.8916)" class="st6" cx="1138.42" cy="758.23" rx="27.89" ry="86.5"/>
					<path class="st7" d="M1164.09,747.34c12.64,29.8,14.79,61.38,8.11,90.52l-67.57-159.25
						C1130.23,694.05,1151.45,717.54,1164.09,747.34z"/>
				</g>
			</g>
			<g>
				<path class="st8" d="M1241.04,824.94l-0.65,6.44l-0.79,7.8l-12.21,120.17c-0.37,3.62-3.42,6.38-7.06,6.38h-110.07
					c-3.64,0-6.69-2.75-7.06-6.38l-12.21-120.17l-0.79-7.8l-0.65-6.44H1241.04z"/>
				<path class="st8" d="M1254.78,805.38v19.91c0,3.36-2.72,6.09-6.08,6.09h-166.12c-3.36,0-6.09-2.73-6.09-6.09v-19.91
					c0-3.36,2.72-6.09,6.09-6.09h166.12C1252.05,799.29,1254.78,802.02,1254.78,805.38z"/>
				<polygon class="st9" points="1240.38,831.38 1239.59,839.17 1090.97,839.17 1090.17,831.38 				"/>
				<path class="st1" d="M1254.78,805.38v19.91c0,3.36-2.72,6.09-6.08,6.09h-8.31l-0.79,7.8l-12.21,120.17
					c-0.37,3.62-3.42,6.38-7.06,6.38h-55.03V799.29h83.41C1252.05,799.29,1254.78,802.02,1254.78,805.38z"/>
			</g>
		</g>
	</g>
	<g>
		<path class="st1" d="M1541.38,904.18c-0.48-4.56-1.28-9.01-2.38-13.33c-3.1-12.23-8.55-23.4-15.79-32.92h-4.03
			c1.33-2.22,2.6-4.48,3.79-6.81c11.46-22.55,14.54-47.19,10.41-70.5c-13.93,6.82-26.48,16.49-36.71,28.68
			c-1.67-8.89-4.39-17.5-8.08-25.68c-8.52,7.23-15.97,15.72-22.07,25.25c-7.08-17.47-17.89-32.71-31.3-44.94
			c-7.73,16.53-11.86,34.87-11.63,53.82c-7.72-8.28-16.47-15.35-25.96-21.08c-4.52,19.7-4.14,40.76,1.88,61.25h-3.26
			c-7.24,9.52-12.69,20.7-15.79,32.92c-1.09,4.32-1.9,8.77-2.38,13.33c-0.36,3.37-0.54,6.8-0.54,10.28
			c0,35.86,19.6,66.77,47.83,80.86h34.36h34.36c28.24-14.09,47.83-44.99,47.83-80.86C1541.92,910.98,1541.74,907.55,1541.38,904.18z
			"/>
		<g>
			
				<ellipse transform="matrix(0.9806 -0.1959 0.1959 0.9806 -131.2934 283.458)" class="st6" cx="1367.43" cy="805.51" rx="24.11" ry="73.52"/>
			<path class="st7" d="M1391.07,800.79c5.39,26.98,1.59,53.67-9.24,76.82l-28.8-144.19
				C1371.92,750.62,1385.68,773.8,1391.07,800.79z"/>
		</g>
		<g>
			
				<ellipse transform="matrix(0.22 -0.9755 0.9755 0.22 286.4064 1996.2273)" class="st6" cx="1391.54" cy="819.01" rx="67.57" ry="22.66"/>
			<path class="st7" d="M1413.64,824c-5.56,24.67-18.91,45.61-36.97,60.93l29.74-131.83C1416.13,774.68,1419.2,799.33,1413.64,824z"
				/>
		</g>
		<g>
			
				<ellipse transform="matrix(0.453 -0.8915 0.8915 0.453 54.6284 1709.7026)" class="st6" cx="1420.58" cy="810.33" rx="67.57" ry="22.66"/>
			<path class="st7" d="M1440.77,820.6c-11.46,22.55-29.54,39.57-50.81,49.98l61.22-120.48
				C1455.32,773.41,1452.23,798.05,1440.77,820.6z"/>
		</g>
		<g>
			
				<ellipse transform="matrix(0.9206 -0.3906 0.3906 0.9206 -218.2216 590.7775)" class="st6" cx="1343.32" cy="831.89" rx="23.02" ry="71.41"/>
			<path class="st7" d="M1364.52,822.9c10.44,24.6,12.21,50.67,6.7,74.73l-55.78-131.47C1336.56,778.9,1354.08,798.3,1364.52,822.9z
				"/>
		</g>
		<path class="st8" d="M1459.73,883.94c0,32.95-16.54,61.7-41.11,77.09c-2.18,1.37-4.42,2.62-6.72,3.77h-68.73
			c-28.23-14.09-47.83-44.99-47.83-80.86c0-3.47,0.18-6.9,0.54-10.28c0.49-4.55,1.29-9.01,2.38-13.33
			c3.1-12.22,8.56-23.4,15.8-32.92h126.95c7.25,9.52,12.69,20.7,15.79,32.92c1.1,4.32,1.9,8.78,2.39,13.33
			C1459.55,877.04,1459.73,880.47,1459.73,883.94z"/>
		<path class="st10" d="M1459.19,873.66h-163.31c0.49-4.55,1.29-9.01,2.38-13.33h158.54C1457.9,864.65,1458.7,869.11,1459.19,873.66
			z"/>
		<path class="st1" d="M1459.73,883.94c0,32.95-16.54,61.7-41.11,77.09c-2.18,1.37-4.42,2.62-6.72,3.77h-34.37V827.41h63.48
			c7.25,9.52,12.69,20.7,15.79,32.92c1.1,4.32,1.9,8.78,2.39,13.33C1459.55,877.04,1459.73,880.47,1459.73,883.94z"/>
	</g>
	<g>
		<g>
			<path class="st11" d="M920.66,991.56V1296h934.69V991.56H920.66z M1401.25,1138.2c0,0,11.92-48.37-16.91-64.11
				C1413.18,1089.83,1401.25,1138.2,1401.25,1138.2z"/>
			<rect x="899.86" y="965.03" class="st11" width="974.18" height="26.53"/>
			<rect x="920.66" y="991.56" class="st12" width="934.69" height="9.52"/>
			<path class="st13" d="M951.81,1024.36v195.25h865.07v-195.25H951.81z"/>
			<rect x="951.81" y="1245.36" class="st13" width="865.07" height="50.64"/>
			<g>
				<circle class="st1" cx="1388" cy="1113.14" r="42.77"/>
				<g>
					<path class="st14" d="M1418.63,1108.38c0-18.94-15.35-34.29-34.29-34.29c28.83,15.74,16.91,64.11,16.91,64.11
						C1411.63,1132.3,1418.63,1121.16,1418.63,1108.38z"/>
					<path class="st1" d="M1418.63,1108.38c0-18.94-15.35-34.29-34.29-34.29c28.83,15.74,16.91,64.11,16.91,64.11
						C1411.63,1132.3,1418.63,1121.16,1418.63,1108.38z"/>
				</g>
				<path class="st14" d="M1384.35,1074.09c-18.94,0-34.29,15.35-34.29,34.29s15.35,34.29,34.29,34.29c6.15,0,11.92-1.63,16.91-4.46
					C1401.25,1138.2,1413.17,1089.83,1384.35,1074.09z"/>
			</g>
		</g>
		<polygon class="st1" points="1855.35,1002.29 1855.35,1296 1929.19,1296 1929.19,1038.34 1929.19,1028.83 1947.89,1028.83 
			1947.89,1002.29 		"/>
	</g>
	<g>
		<path class="st15" d="M431.78,735.54C432.19,733.35,431.92,734.63,431.78,735.54L431.78,735.54z"/>
		<path class="st15" d="M410.24,817.73c0.01,0.06,0.03,0.14,0.04,0.22c0-0.01,0-0.01,0-0.02
			C410.27,817.87,410.26,817.8,410.24,817.73z"/>
		<rect x="134.7" y="285.56" class="st16" width="684.99" height="902.83"/>
		<rect x="138.7" y="297.01" class="st17" width="635.58" height="851.18"/>
		<g>
			<path class="st18" d="M677.75,799.4c-23.72-22.83-58.01-28.25-89.23-20.83c-18.14,4.31-35.57,12.55-51.44,22.21
				c-14.69,8.94-29.13,19.36-41.74,31.08c-5.52,5.13-10.29,11.16-15.04,16.99c-8.2,10.06-16.11,20.38-23.61,30.98
				c-0.06,0.09-0.12,0.18-0.19,0.26c-0.22-5.16-0.41-10.32-0.54-15.49c-0.69-26.63,2.28-53.01,2.24-79.61
				c-0.02-12.16-0.09-24.36,0.89-36.49c0.12-1.48,0.26-2.95,0.42-4.42c0.02-0.19,0.04-0.38,0.07-0.57c0.42-2.26,0.78-4.51,1.37-6.74
				c0.21-0.78,0.45-1.55,0.68-2.32c0.07-0.1,0.14-0.21,0.21-0.32c7.15-6.14,6.71-19.22-0.04-25.41c-7.67-7.04-17.77-6.53-25.46,0
				c-7.42,6.3-10.29,17.14-11.65,26.39c-1.79,12.07-2.34,24.17-2.45,36.36c-0.1,10.59,0.13,21.18-0.13,31.77
				c-0.35,14.07-2.13,28.03-2.29,42.12c-0.03,2.37-0.03,4.75-0.02,7.12c-5.75-4.76-11.5-9.5-17.36-14.12
				c-27.67-21.82-59.42-44.17-96.21-44.15c-18.99,0.01-37.71,6.56-53.18,17.43c-13.67,9.6-27.18,23.44-25.59,41.54
				c2.79,31.87,42.08,46.4,68.14,54.04c6.94,2.03,13.98,3.75,21.09,5.05c4.36,0.79,8.76,1.39,13.16,1.92
				c2.76,0.33,5.53,0.62,8.29,0.95c0.2,0.02,0.74,0.1,1.19,0.16c1.84,0.26,3.69,0.52,5.53,0.8c25.71,3.81,51.91,9.14,78.01,7.63
				c0.43,8.7,0.76,17.4,0.9,26.11c0.5,32.41-0.66,64.83-0.67,97.24c-0.01,36.74,1.31,73.77,8.63,109.88
				c1.87,9.24,13.33,15.42,22.14,12.57c9.8-3.17,14.58-12.24,12.57-22.14c-0.69-3.4-1.33-6.81-1.91-10.23
				c-0.32-1.87-0.61-3.74-0.9-5.61c-0.12-0.81-0.23-1.62-0.36-2.43c-0.02-0.09-0.03-0.16-0.04-0.23c-0.92-7.46-1.7-14.92-2.27-22.41
				c-1.19-15.63-1.67-31.3-1.82-46.97c-0.21-21.54,0.22-43.07,0.5-64.6c11.11-1.93,22.04-6.26,32.51-10.16
				c19.38-7.22,38.43-15.4,57.15-24.19c39.37-18.49,79.36-39.84,111.77-69.26c12.93-11.73,25.33-26.04,30.34-43.11
				C696.63,830.41,690.94,812.09,677.75,799.4z M265.21,853.08c-0.44-0.45-0.85-1.05-1.3-1.56c-0.06-0.1-0.12-0.19-0.18-0.29
				c0,0.02,0,0.05-0.01,0.07c-0.07-0.08-0.15-0.13-0.23-0.2c-0.01-0.02-0.01-0.04-0.02-0.06c0.08,0.06,0.17,0.13,0.25,0.19
				c-0.11-0.17-0.21-0.33-0.32-0.5c0-0.02,0-0.04,0-0.06c0.01-0.02,0.01-0.05,0.02-0.07c0.01-0.03,0.03-0.06,0.04-0.08
				c0.09-0.15,0.19-0.3,0.29-0.46c0.05,0.32,0.05,0.72-0.03,1.17c1.33,1.03,1.69,1.77,1.6,1.97
				C265.29,853.15,265.25,853.12,265.21,853.08z"/>
			<polygon class="st18" points="263.73,851.21 263.73,851.22 263.73,851.22 			"/>
		</g>
		<path class="st19" d="M612.75,604.03c-2.44-29.15-4.99-39.56-17.87-65.8c-1.92-3.91-4.19-7.69-6.68-11.33
			c-1.72-3.66-3.55-7.18-5.49-10.53c-6.05-10.48-13.58-20.55-22.58-28.68c-20.22-18.26-31.02-23.62-56.36-32.93
			c-2.91-1.07-5.77-1.81-8.83-2.31c-10.36-1.7-26.98-5.19-39.66-4.28c-13.08,0.93-26.29,2.39-39.06,5.45
			c-12.54,3-25.92,9.69-36.69,14.62c-3.26,1.49-6.4,3.14-9.33,5.19c-10.35,7.25-21.77,14.78-30.43,24.39
			c-9.77,10.84-19.87,22.43-26.53,35.56c-6.1,12.02-13.16,25.93-15.5,39.8c-5,29.67-5.76,39.71,0.17,69.71
			c2.62,13.25,8.52,26.27,15.44,37.74c6.77,11.22,14.76,22.35,24.58,31.1c8.14,7.24,17.41,14.26,26.34,20.43
			c2.3,1.58,4.68,3,7.2,4.19c12.02,5.68,25.5,12.48,39.01,15.41c11.53,2.51,23.59,3.65,35.29,4.95c3.34,0.37,6.67,0.61,10.03,0.57
			c29.85-0.39,55.02-7.01,81.23-20.78c22.02-11.57,44.32-33.99,56.3-55.78c0.43-0.78,0.8-1.57,1.19-2.36
			c4.05-8.29,8.84-19.83,12.03-28.48c0.7-1.9,1.33-3.8,1.74-5.79c0.17-0.84,0.28-1.68,0.42-2.53c1.63-9.88,3.65-21.61,4.19-31.6
			C612.98,607.96,612.91,606.02,612.75,604.03z"/>
		<path class="st20" d="M113.99,272.31v902.83h684.99V272.31H113.99z M774.28,1148.19H138.7V297.01h635.58V1148.19z"/>
		<polygon class="st16" points="138.7,1148.19 774.28,1148.19 774.28,297.01 		"/>
	</g>
	<g>
		<path class="st1" d="M2333.16,392.76c-35.31,0-70.62,0-105.92,0c-78.71,0-157.42,0-236.13,0
			c-19.19,117.15-38.35,232.15-57.35,343.94c71.58,10.77,143.78,16.43,216.03,17.01V1296h24.7V753.71
			c17.65-0.14,35.3-0.59,52.94-1.34c0,0.2,0,0.4,0,0.6c54.55-2.52,109-7.95,163.09-16.28
			C2371.51,624.91,2352.36,509.9,2333.16,392.76z"/>
		<rect x="2059.43" y="723.75" class="st21" width="24.71" height="572.25"/>
		<g>
			<path class="st22" d="M2060.48,725.91c-72.59-0.56-145.15-6.53-217.08-17.9c19-117.52,38.16-238.43,57.35-361.58
				c114.02,0,228.04,0,342.05,0c19.19,123.15,38.35,244.06,57.35,361.58c-71.92,11.37-144.48,17.34-217.08,17.9"/>
			<path class="st1" d="M2136.89,346.42c0.06,126.23,0.12,252.46,0.19,378.69c54.55-2.65,109-8.36,163.09-17.11
				c-19-117.52-38.16-238.43-57.35-361.58C2207.5,346.42,2172.2,346.42,2136.89,346.42z"/>
		</g>
		<rect x="2059.43" y="725.91" class="st7" width="24.71" height="20.13"/>
	</g>
</g>
</svg>
